<?xml version="1.0" encoding="UTF-8"?>
<svg id="Capa_1" xmlns="http://www.w3.org/2000/svg" version="1.1" viewBox="0 0 150 150">
  <!-- Generator: Adobe Illustrator 29.7.1, SVG Export Plug-In . SVG Version: 2.1.1 Build 8)  -->
  <defs>
    <style>
      .st0 {
        stroke: #4a6360;
        stroke-miterlimit: 10;
      }

      .st0, .st1 {
        fill: #4a6360;
      }

      .st2 {
        fill: #fff;
      }

      .st3 {
        fill: #efede7;
      }
    </style>
  </defs>
  <g>
    <g>
      <path class="st0" d="M127.09,98.34h-33.24c-.86,0-1.57-.55-1.57-1.24v-9.92c0-.41.25-.79.67-1.02.42-.23.96-.28,1.44-.14l33.24,9.92c.71.21,1.12.79.99,1.38-.13.59-.78,1.02-1.54,1.02ZM95.42,95.86h23.08l-23.08-6.89v6.89ZM56.14,98.34H22.91c-.76,0-1.4-.43-1.54-1.02-.13-.59.28-1.17.99-1.38l33.24-9.92c.48-.14,1.02-.09,1.44.14.42.23.67.61.67,1.02v9.92c0,.69-.7,1.24-1.56,1.24ZM31.5,95.86h23.08v-6.89l-23.08,6.89ZM24.28,93.38c-.37,0-.74-.1-1.03-.31-.44-.3-.63-.77-.5-1.21l3.1-10.69c.77-2.76,1.54-5.43,2.28-8.01l1.5-5.21c.16-.57.79-.97,1.52-.97h24.98c.86,0,1.56.55,1.56,1.24v14.38c0,.52-.4.98-1.01,1.16l-31.86,9.53c-.18.05-.37.08-.55.08ZM32.41,69.46l-1.22,4.25c-.74,2.57-1.51,5.24-2.28,8l-2.45,8.45,28.12-8.41v-12.29h-22.17ZM56.14,82.6h.04-.04ZM125.65,93.38c-.19,0-.37-.03-.55-.08l-31.79-9.53c-.61-.18-1.01-.64-1.01-1.16v-14.38c0-.69.7-1.24,1.57-1.24h24.98c.73,0,1.36.4,1.52.97l.54,1.9c1.01,3.57,2.08,7.34,3.25,11.31l3.03,10.7c.12.44-.07.91-.5,1.21-.29.2-.66.3-1.02.3ZM95.42,81.75l28.07,8.42-2.39-8.45c-1.17-3.97-2.24-7.74-3.25-11.32l-.26-.94h-22.16v12.29Z"/>
      <path class="st0" d="M127.09,142.92H22.91c-.86,0-1.56-.55-1.56-1.24v-40.34c0-.69.7-1.24,1.56-1.24s1.57.55,1.57,1.24v39.1h101.06v-39.1c0-.69.7-1.24,1.56-1.24s1.57.55,1.57,1.24v40.34c0,.69-.7,1.24-1.57,1.24Z"/>
      <path class="st1" d="M131.57,99.56c-.47,0-.95-.06-1.42-.2l-36.85-11.03c-.61-.18-1.01-.64-1.01-1.16v-4.57c0-.41.25-.79.68-1.02.42-.23.97-.28,1.44-.14l38.67,11.63c2.13.6,3.27,2.52,2.51,4.26-.7,1.39-2.31,2.23-4.02,2.23ZM95.42,86.32l35.8,10.72c.57.15,1.19-.08,1.44-.56.18-.42-.1-.92-.65-1.08l-36.59-11v1.92ZM18.42,99.56c-.64,0-1.29-.11-1.87-.34-1.02-.39-1.78-1.06-2.14-1.89-.76-1.75.37-3.67,2.54-4.28l38.64-11.62c.48-.14,1.02-.09,1.44.14.42.23.68.61.68,1.02v4.57c0,.52-.4.98-1.01,1.16l-36.82,11.02s-.02,0-.03,0c-.46.13-.94.19-1.43.19ZM19.33,98.2h.04-.04ZM54.58,84.4c-11.79,3.55-23.58,7.09-35.38,10.64-.39.12-.79.24-1.18.35-.04.01-.64.23-.72.72-.02.14,0,.28.06.42.12.27.39.4.54.46.28.11.61.12.89.04.4-.12.79-.24,1.19-.36,11.53-3.45,23.07-6.9,34.6-10.36v-1.92Z"/>
      <path class="st1" d="M120.49,69.46h-26.63c-.86,0-1.57-.55-1.57-1.24v-4.13c0-.69.7-1.24,1.57-1.24h26.63c2.27,0,4.11,1.5,4.11,3.33s-1.88,3.28-4.11,3.28ZM95.42,66.98h25.07c.51,0,.98-.38.98-.8,0-.45-.46-.85-.98-.85h-25.07v1.65ZM56.14,69.46h-26.63c-2.3,0-4.18-1.47-4.18-3.28s1.88-3.33,4.18-3.33h26.63c.86,0,1.56.55,1.56,1.24v4.13c0,.69-.7,1.24-1.56,1.24ZM29.51,65.33c-.58,0-1.05.38-1.05.85,0,.43.48.8,1.05.8h25.07v-1.65h-25.07Z"/>
      <path class="st0" d="M93.85,142.92h-37.71c-.86,0-1.57-.55-1.57-1.24v-38.85c0-.69.7-1.24,1.57-1.24h37.71c.86,0,1.56.55,1.56,1.24v38.85c0,.69-.7,1.24-1.56,1.24ZM57.71,140.44h34.58v-36.37h-34.58v36.37ZM93.85,99.93h-37.71c-.86,0-1.57-.55-1.57-1.24v-43.48c0-.69.7-1.24,1.57-1.24h37.71c.86,0,1.56.55,1.56,1.24v43.48c0,.69-.7,1.24-1.56,1.24ZM57.71,97.46h34.58v-41h-34.58v41Z"/>
      <path class="st0" d="M93.85,52.32h-37.71c-.55,0-1.06-.23-1.34-.6-.28-.37-.3-.84-.04-1.22l15.42-22.92c.23-.35.66-.59,1.15-.64.51-.05.99.08,1.34.36,1.29,1.02,3.38,1.02,4.66,0,.35-.28.82-.41,1.34-.36.49.06.92.3,1.15.64l15.42,22.92c.26.38.25.85-.04,1.22-.28.37-.79.6-1.34.6ZM58.75,49.85h32.5l-13.35-19.85c-1.82.75-4.05.73-5.81.01l-13.34,19.84Z"/>
      <path class="st0" d="M94.68,56.46h-39.36c-2.3,0-4.11-1.46-4.11-3.33s1.84-3.28,4.11-3.28h39.36c2.23,0,4.11,1.5,4.11,3.28s-1.84,3.33-4.11,3.33ZM55.32,52.32c-.54,0-.98.36-.98.8,0,.49.42.86.98.86h39.36c.52,0,.98-.4.98-.86,0-.42-.47-.8-.98-.8h-39.36Z"/>
      <path class="st0" d="M75,30.56c-3.48,0-6.31-2.26-6.31-5.04,0-2.35,2.02-4.33,4.75-4.88v-5.39h-4.35c-.86,0-1.57-.55-1.57-1.24s.7-1.24,1.57-1.24h4.35v-4.44c0-.69.7-1.24,1.57-1.24s1.56.55,1.56,1.24v4.44h4.35c.86,0,1.56.55,1.56,1.24s-.7,1.24-1.56,1.24h-4.35v5.39c2.72.56,4.75,2.54,4.75,4.88,0,2.78-2.83,5.04-6.31,5.04ZM75,22.95c-1.76,0-3.18,1.15-3.18,2.56s1.43,2.56,3.18,2.56,3.18-1.15,3.18-2.56-1.43-2.56-3.18-2.56Z"/>
      <path class="st0" d="M94.68,104.07h-39.36c-2.3,0-4.11-1.46-4.11-3.33s1.84-3.28,4.11-3.28h39.36c2.23,0,4.11,1.5,4.11,3.28s-1.84,3.33-4.11,3.33ZM55.32,99.93c-.54,0-.98.36-.98.8,0,.49.42.86.98.86h39.36c.52,0,.98-.4.98-.86,0-.42-.47-.8-.98-.8h-39.36Z"/>
      <path class="st0" d="M86.21,142.92h-22.43c-.86,0-1.56-.55-1.56-1.24v-22.81c0-5.64,5.73-10.22,12.78-10.22s12.78,4.59,12.78,10.22v22.81c0,.69-.7,1.24-1.57,1.24ZM65.35,140.44h19.3v-21.57c0-4.27-4.33-7.74-9.65-7.74s-9.65,3.47-9.65,7.74v21.57Z"/>
      <path class="st0" d="M115.39,137.68h-11.15c-.86,0-1.56-.55-1.56-1.24v-10.91c0-3.15,3.2-5.7,7.14-5.7s7.14,2.61,7.14,5.7v10.91c0,.69-.7,1.24-1.57,1.24ZM105.81,135.2h8.02v-9.67c0-1.75-1.83-3.22-4.01-3.22s-4.01,1.45-4.01,3.22v9.67ZM45.75,137.68h-11.15c-.86,0-1.56-.55-1.56-1.24v-10.91c0-3.15,3.2-5.7,7.14-5.7s7.14,2.56,7.14,5.7v10.91c0,.69-.7,1.24-1.57,1.24ZM36.17,135.2h8.02v-9.67c0-1.78-1.8-3.22-4.01-3.22s-4.01,1.45-4.01,3.22v9.67ZM115.39,116.74h-11.15c-.86,0-1.56-.55-1.56-1.24v-10.86c0-3.14,3.2-5.7,7.14-5.7s7.14,2.56,7.14,5.7v10.86c0,.69-.7,1.24-1.57,1.24ZM105.81,114.26h8.02v-9.62c0-1.78-1.8-3.22-4.01-3.22s-4.01,1.42-4.01,3.22v9.62ZM45.75,116.74h-11.15c-.86,0-1.56-.55-1.56-1.24v-10.86c0-3.14,3.2-5.7,7.14-5.7s7.14,2.56,7.14,5.7v10.86c0,.69-.7,1.24-1.57,1.24ZM36.17,114.26h8.02v-9.62c0-1.81-1.76-3.22-4.01-3.22s-4.01,1.42-4.01,3.22v9.62Z"/>
      <path class="st0" d="M83.12,93.32h-16.31c-.86,0-1.57-.55-1.57-1.24v-16.59c0-4.27,4.38-7.74,9.76-7.74s9.68,3.47,9.68,7.74v16.59c0,.69-.7,1.24-1.57,1.24ZM68.37,90.84h13.18v-15.35c0-2.9-2.94-5.26-6.55-5.26s-6.63,2.36-6.63,5.26v15.35Z"/>
    </g>
    <polygon class="st0" points="56.89 50.94 71.82 28.89 79.12 29.33 93.7 50.51 56.89 50.94"/>
    <polygon class="st0" points="24.79 91.28 31.5 68.38 56.18 67.75 55.71 83.19 24.79 91.28"/>
    <polygon class="st0" points="93.7 68.72 119.25 68.72 125.26 91.28 93.7 83.28 93.7 68.72"/>
    <polygon class="st0" points="28.39 96.81 55.22 88.38 55.22 96.81 28.39 96.81"/>
    <polygon class="st0" points="93.7 96.81 94.4 87.45 122.63 96.81 93.7 96.81"/>
  </g>
  <rect class="st2" x="35.55" y="56.34" width=".25" height=".12"/>
  <g>
    <rect class="st3" x="29.73" y="65.33" width="24.28" height="1.65"/>
    <ellipse class="st3" cx="29.67" cy="66.16" rx=".93" ry=".83"/>
  </g>
  <path class="st3" d="M54.91,100.76c0,.76.9,1.37,2,1.37h36.36c1.1,0,2-.62,2-1.37s-.9-1.37-2-1.37h-36.36c-1.1,0-2,.62-2,1.37Z"/>
  <path class="st3" d="M54.91,53.15c0,.76.9,1.37,2,1.37h36.36c1.1,0,2-.62,2-1.37s-.9-1.37-2-1.37h-36.36c-1.1,0-2,.62-2,1.37Z"/>
  <polygon class="st3" points="18.83 97.02 54.73 86.21 54.12 84.53 18.22 95.34 18.83 97.02"/>
  <polygon class="st3" points="131.16 97.02 95.26 86.21 95.87 84.53 131.77 95.34 131.16 97.02"/>
  <g>
    <rect class="st3" x="95.98" y="65.33" width="24.28" height="1.65" transform="translate(216.23 132.31) rotate(180)"/>
    <ellipse class="st3" cx="120.31" cy="66.16" rx=".93" ry=".83"/>
  </g>
</svg>