<?xml version="1.0" encoding="UTF-8"?>
<svg id="Layer_1" xmlns="http://www.w3.org/2000/svg" version="1.1" viewBox="0 0 3380 2423">
  <!-- Generator: Adobe Illustrator 29.6.1, SVG Export Plug-In . SVG Version: 2.1.1 Build 9)  -->
  <defs>
    <style>
      .st0 {
        fill: #fff;
        fill-rule: evenodd;
      }
    </style>
  </defs>
  <path class="st0" d="M2625.93,2422.62c-1137.91,0-1019.25-1936.73,191.85-2422.94,36.3,6.32,66.94,30.86,80.85,65,13.93,34.17,9.26,73.14-12.32,102.93-374.6,305.86-547.71,594.56-519.44,865.93,80.74-28.04,168.01-43.38,259.05-43.38,416.36,0,753.92,320.63,753.92,716.24s-337.56,716.21-753.92,716.21"/>
  <path class="st0" d="M789.1,2422.62C-348.86,2422.62-230.15,485.89,980.89-.33c36.35,6.32,66.93,30.86,80.85,65,13.97,34.17,9.31,73.14-12.31,102.93-374.61,305.86-547.73,594.56-519.45,865.93,80.81-28.04,168.03-43.38,259.12-43.38,416.36,0,753.92,320.63,753.92,716.24s-337.56,716.21-753.92,716.21"/>
</svg>