<?xml version="1.0" encoding="UTF-8"?>
<svg id="Capa_1" xmlns="http://www.w3.org/2000/svg" version="1.1" viewBox="0 0 474.63 474.63">
  <!-- Generator: Adobe Illustrator 29.6.1, SVG Export Plug-In . SVG Version: 2.1.1 Build 9)  -->
  <defs>
    <style>
      .st0 {
        fill: #fff;
      }
    </style>
  </defs>
  <path class="st0" d="M332.84,257.92v-102.5c0-.24-2.04-4.01-2.26-4.24-2.76-2.84-8.51-2.44-11.95-.97-38.31,14.34-82.81,22.31-120.31,37.69-6.64,2.72-12.11,6.08-15.01,12.99l-.58,132.42c-5,40.87-55,62.35-91.15,48.38-26.13-10.1-31.97-36.93-17.15-59.68,16.64-25.54,54.63-39.01,83.41-28.09v-147.5c0-20.08,19.62-33.09,36.23-38.77,43.37-14.83,88.29-25.63,131.75-40.25,20.5-5.41,30.78,5.26,32.06,24.97-3.07,64.66,3.92,132.84,0,197.09-2.48,40.68-40.62,61.78-78.54,58.45-16.62-1.46-37.45-14.15-40.27-31.73-7.4-46.17,56.21-75.88,93.77-58.27Z"/>
</svg>